<svg width="48" height="48" viewBox="0 0 48 48" fill="none" xmlns="http://www.w3.org/2000/svg">
<path d="M43.6926 33.492L43.0184 31.8632L35.2648 13.1351C35.1932 12.9627 35.0567 12.8262 34.8843 12.7546L14.5106 4.31738C14.331 4.24247 14.1288 4.24576 13.9511 4.32666C13.7741 4.40691 13.6382 4.55738 13.576 4.74169L12.3124 8.47538L0.14768 44.4159L0.144399 44.4272C-0.187101 45.4084 0.0615236 46.4737 0.794086 47.2062C1.16065 47.5728 1.61018 47.8181 2.09074 47.9302C2.5714 48.0422 3.08318 48.021 3.57368 47.8553L26.6289 40.0565L27.9056 38.7372L33.7738 37.6394L39.536 35.6903L43.2689 34.4274C43.4532 34.3651 43.6024 34.2293 43.6832 34.0515C43.7636 33.8745 43.7668 33.6724 43.6926 33.492Z" fill="#FFD885"/>
<path d="M43.269 34.4274L39.536 35.6903L33.7739 37.6394L27.9057 38.7372L26.6289 40.0565L3.57364 47.8553C3.08305 48.021 2.57126 48.0422 2.0907 47.9302C1.61005 47.8181 1.16061 47.5729 0.794045 47.2062C0.0614824 46.4737 -0.187049 45.4083 0.144357 44.4272L0.147639 44.4159C1.13942 45.2738 2.51755 45.5502 3.77248 45.1267L43.0183 31.8632L43.6925 33.492C43.7667 33.6723 43.7634 33.8745 43.6832 34.0515C43.6025 34.2293 43.4533 34.3651 43.269 34.4274Z" fill="#FFD885"/>
<path d="M43.269 34.4274L39.5361 35.6903C39.355 34.9207 39.1317 34.1112 38.8572 33.2693C37.4399 28.923 34.6589 23.6931 29.3761 18.4088C23.0663 12.1029 17.0815 9.61163 12.3389 8.5006L12.3124 8.47538L13.5759 4.74169C13.6383 4.55738 13.7741 4.40691 13.9511 4.32666C14.1288 4.24576 14.331 4.24247 14.5106 4.31738L34.8843 12.7546C35.0567 12.8262 35.1932 12.9627 35.2648 13.1351L43.0184 31.8632L43.6926 33.492C43.7668 33.6723 43.7635 33.8745 43.6833 34.0515C43.6025 34.2293 43.4533 34.3651 43.269 34.4274Z" fill="#FFE7B3"/>
<path d="M47.9392 32.7588C46.8945 27.7788 43.9577 20.151 35.9012 12.0943C27.8434 4.04025 20.2145 1.10485 15.2332 0.0600018C13.7689 -0.246936 12.3263 0.653345 11.9465 2.08331C11.9339 2.13169 11.9226 2.18006 11.912 2.22919C11.7575 2.96306 11.8987 3.71156 12.3091 4.33931C12.4165 4.50506 12.5405 4.65685 12.677 4.79344C13.0582 5.17463 13.5414 5.43778 14.0811 5.55056C18.3172 6.43894 24.8523 8.98322 31.9343 16.0614C39.0137 23.1423 41.5594 29.6762 42.4483 33.9104C42.5597 34.4447 42.8228 34.9307 43.2081 35.3158L43.2087 35.3165C43.8816 35.9893 44.8395 36.2751 45.7696 36.0795C45.8186 36.0689 45.8684 36.0577 45.9161 36.0443C46.587 35.8667 47.1605 35.4536 47.5423 34.8689C47.9526 34.2412 48.0931 33.492 47.9392 32.7588Z" fill="#D7A251"/>
<path d="M47.9393 32.7588C46.8946 27.7788 43.9578 20.151 35.9013 12.0943C27.8434 4.04025 20.2145 1.10485 15.2333 0.0600018C13.7689 -0.246936 12.3264 0.653346 11.9465 2.08331C12.3575 1.97325 12.7998 1.95535 13.2445 2.04881C18.2257 3.09366 25.8546 6.02906 33.9125 14.0831C41.969 22.1398 44.9058 29.7676 45.9506 34.7476C46.0421 35.1838 46.0295 35.626 45.9161 36.0443C46.587 35.8667 47.1604 35.4536 47.5423 34.8689C47.9526 34.2412 48.0932 33.492 47.9393 32.7588Z" fill="#D7A251"/>
<path d="M22.2606 18.6233C22.2605 17.4408 21.8001 16.3292 20.964 15.493C20.9639 15.4929 20.9637 15.4927 20.9636 15.4926C19.237 13.7665 16.4277 13.7665 14.7012 15.4926C13.8648 16.3289 13.4042 17.4406 13.4042 18.6234C13.4042 19.8059 13.8647 20.9174 14.7008 21.7537C14.7009 21.7538 14.7011 21.754 14.7012 21.7542C16.4278 23.4803 19.2371 23.4803 20.9636 21.7542C21.8 20.9178 22.2605 19.806 22.2606 18.6233Z" fill="#FF4C33"/>
<path d="M18.5797 29.4131C18.5796 29.413 18.5795 29.4129 18.5794 29.4128C16.8528 27.6867 14.0435 27.6867 12.317 29.4128C11.4806 30.249 11.0199 31.3609 11.0199 32.5436C11.0199 33.726 11.4804 34.8376 12.3166 35.6739C12.3166 35.674 12.3168 35.6742 12.317 35.6743C14.0436 37.4004 16.8529 37.4004 18.5794 35.6743C19.4159 34.838 19.8765 33.7262 19.8765 32.5435C19.8765 31.361 19.416 30.2494 18.5797 29.4131Z" fill="#FF4C33"/>
<path d="M33.7747 37.64L26.6237 40.0405L26.3155 39.7322C25.7905 39.2071 25.4139 38.5734 25.2057 37.8826C25.0825 37.473 25.0188 37.0421 25.0188 36.6018C25.0188 35.4192 25.4795 34.3074 26.3155 33.4714C27.1793 32.6089 28.3136 32.1774 29.4471 32.1774C30.5807 32.1774 31.715 32.6089 32.578 33.4721C33.0348 33.9288 33.3782 34.4645 33.5969 35.0465C33.8515 35.724 33.9363 36.4625 33.8336 37.2084L33.7747 37.64Z" fill="#FF4C33"/>
<path d="M33.7746 37.6401L26.6237 40.0405L26.3154 39.7323C25.7904 39.2072 25.4138 38.5734 25.2057 37.8827L33.597 35.0467C33.8515 35.7242 33.9363 36.4627 33.8336 37.2085L33.7746 37.6401Z" fill="#FF4C33"/>
<path d="M10.5939 38.0148C10.5493 37.7067 10.3073 37.4648 9.99925 37.4201C9.94375 37.4121 9.43844 37.3431 8.79354 37.4035C7.86944 37.4899 7.10988 37.8067 6.59679 38.3196C6.08369 38.8326 5.76672 39.5922 5.68029 40.5162C5.61991 41.1611 5.68901 41.6662 5.69707 41.7217C5.71938 41.8757 5.7911 42.0131 5.89563 42.1178C6.00016 42.2224 6.13769 42.294 6.29172 42.3164C6.34713 42.3245 6.85244 42.3934 7.49744 42.333C8.42154 42.2466 9.1811 41.9298 9.69419 41.4169C10.2073 40.9039 10.5243 40.1444 10.6107 39.2204C10.671 38.5754 10.602 38.0703 10.5939 38.0148Z" fill="#7CBC71"/>
<path d="M26.7876 30.3972C26.8082 30.345 26.9906 29.8689 27.0789 29.2272C27.2056 28.3078 27.0702 27.4961 26.6877 26.8797C26.3051 26.2631 25.6378 25.7815 24.7577 25.4867C24.1434 25.2808 23.6358 25.2328 23.58 25.2281C23.27 25.2014 22.9792 25.3817 22.8653 25.6715C22.8448 25.7236 22.6624 26.1998 22.574 26.8414C22.4475 27.7607 22.5828 28.5725 22.9653 29.189C23.0726 29.3621 23.2025 29.5243 23.353 29.6749C23.7391 30.061 24.2621 30.3699 24.8952 30.5819C25.5095 30.7878 26.0171 30.8358 26.0729 30.8406C26.3831 30.8672 26.6738 30.6869 26.7876 30.3972Z" fill="#7CBC71"/>
<path d="M13.9787 25.4332L12.9059 23.7608C12.6962 23.4335 12.2613 23.3389 11.9344 23.5485C11.6075 23.7583 11.5126 24.1932 11.7222 24.5201L12.795 26.1925C12.8229 26.2361 12.8548 26.2755 12.8899 26.3107C13.1186 26.5394 13.4831 26.5865 13.7664 26.4047C14.0933 26.195 14.1883 25.7601 13.9787 25.4332Z" fill="#FFE7B2"/>
<path d="M28.9816 23.5724L27.4726 22.2796C27.1778 22.027 26.7339 22.0612 26.4812 22.3561C26.2406 22.637 26.2602 23.053 26.5174 23.3102C26.5302 23.3231 26.5437 23.3355 26.5577 23.3475L28.0667 24.6404C28.3616 24.893 28.8055 24.8588 29.0581 24.5639C29.3109 24.269 29.2772 23.8238 28.9816 23.5724Z" fill="#FFE7B2"/>
<path d="M22.7429 37.0469L22.9321 35.2344C22.9724 34.8483 22.6919 34.5024 22.3058 34.4621C21.9195 34.4218 21.5738 34.7022 21.5334 35.0885L21.3442 36.9011C21.3213 37.1204 21.4019 37.3268 21.5467 37.4715C21.6567 37.5816 21.8038 37.656 21.9706 37.6734C22.3569 37.7137 22.7025 37.4333 22.7429 37.0469Z" fill="#FFE7B2"/>
</svg>
