<svg width="30" height="30" viewBox="0 0 30 30" fill="none" xmlns="http://www.w3.org/2000/svg">
<path d="M10.7022 28.16V23.5734C10.7022 22.4026 11.6583 21.4535 12.8377 21.4535H17.1489C17.7153 21.4535 18.2585 21.6768 18.6589 22.0744C19.0594 22.472 19.2844 23.0112 19.2844 23.5734V28.16C19.2808 28.6468 19.4731 29.1148 19.8186 29.4603C20.164 29.8057 20.6341 30 21.1244 30H24.0657C25.4395 30.0035 26.7581 29.4643 27.7308 28.5012C28.7034 27.5382 29.25 26.2305 29.25 24.8667V11.8003C29.25 10.6987 28.7581 9.65376 27.9069 8.947L17.901 1.0138C16.1605 -0.377157 13.6667 -0.332247 11.9781 1.12047L2.20052 8.947C1.30911 9.63293 0.776328 10.681 0.75 11.8003V24.8534C0.75 27.6958 3.07107 30 5.93426 30H8.80844C9.82684 30 10.6545 29.1843 10.6619 28.1733L10.7022 28.16Z" fill="#91C788"/>
</svg>
