<svg width="12" height="12" viewBox="0 0 12 12" fill="none" xmlns="http://www.w3.org/2000/svg">
<path d="M8.31539 6.5655C8.28714 6.5945 8.18047 6.7185 8.0811 6.8205C7.49854 7.462 5.97881 8.512 5.18339 8.8325C5.06259 8.884 4.75718 8.993 4.59401 9C4.43765 9 4.2886 8.964 4.14637 8.891C3.96907 8.789 3.82684 8.6285 3.7489 8.439C3.69873 8.3075 3.6208 7.914 3.6208 7.907C3.54286 7.4765 3.5 6.777 3.5 6.004C3.5 5.2675 3.54286 4.5965 3.60667 4.1595C3.61398 4.1525 3.69191 3.6635 3.77716 3.496C3.93351 3.19 4.23892 3 4.56576 3H4.59401C4.80687 3.0075 5.25451 3.1975 5.25451 3.2045C6.00706 3.5255 7.49172 4.524 8.08841 5.1875C8.08841 5.1875 8.25645 5.358 8.32952 5.4645C8.4435 5.6175 8.5 5.807 8.5 5.9965C8.5 6.208 8.43619 6.405 8.31539 6.5655Z" fill="white"/>
</svg>
